<svg xmlns="http://www.w3.org/2000/svg" viewBox="0 0 500 500"><g id="freepik--background-simple--inject-159"><path d="M85.46,103.38c27.92-59.45,127.06-51.06,165.31-9.26s50.7,68.6,85.21,53,78.52-11.44,81,38.16S379.11,293.53,314.94,310.88s-64.17,78.76-149.1,66.37C119.53,370.5,118.47,320.39,125,279S53.08,172.32,85.46,103.38Z" style="fill:#407BFF"></path><path d="M85.46,103.38c27.92-59.45,127.06-51.06,165.31-9.26s50.7,68.6,85.21,53,78.52-11.44,81,38.16S379.11,293.53,314.94,310.88s-64.17,78.76-149.1,66.37C119.53,370.5,118.47,320.39,125,279S53.08,172.32,85.46,103.38Z" style="fill:#fff;opacity:0.9"></path></g><g id="freepik--Shadow--inject-159"><ellipse id="freepik--path--inject-159" cx="250" cy="416.24" rx="193.89" ry="11.32" style="fill:#f5f5f5"></ellipse></g><g id="freepik--Device--inject-159"><rect x="85.62" y="103.08" width="173.6" height="312.25" rx="10.4" style="fill:#263238"></rect><path d="M253.36,113.55V404.31a4.25,4.25,0,0,1-4.31,4.25H95.33a3.8,3.8,0,0,1-3.85-3.9V113.2a3.43,3.43,0,0,1,3.3-3.57h38.43a2.68,2.68,0,0,1,2.47,1.73l1.6,3.91a2.68,2.68,0,0,0,2.47,1.72h65.43a2.68,2.68,0,0,0,2.47-1.69l1.59-3.93a2.71,2.71,0,0,1,2.48-1.74h37.87A3.88,3.88,0,0,1,253.36,113.55Z" style="fill:#407BFF"></path><rect x="91.48" y="127.79" width="161.89" height="264.42" style="fill:#fff;opacity:0.5;isolation:isolate"></rect><rect x="109.32" y="118.68" width="2" height="2.67" transform="translate(220.64 240.02) rotate(180)" style="fill:#fff;opacity:0.6000000000000001;isolation:isolate"></rect><rect x="106.06" y="117.79" width="2" height="3.56" transform="translate(214.12 239.13) rotate(180)" style="fill:#fff;opacity:0.6000000000000001;isolation:isolate"></rect><rect x="102.8" y="116.9" width="2" height="4.44" transform="translate(207.6 238.24) rotate(180)" style="fill:#fff;opacity:0.6000000000000001;isolation:isolate"></rect><rect x="99.54" y="116.01" width="2" height="5.33" transform="translate(201.08 237.36) rotate(180)" style="fill:#fff;opacity:0.6000000000000001;isolation:isolate"></rect><rect x="233.86" y="117.71" width="1.19" height="2.67" style="fill:#fff;opacity:0.6000000000000001;isolation:isolate"></rect><rect x="235.86" y="116.73" width="9.44" height="4.61" transform="translate(481.16 238.08) rotate(180)" style="fill:#fff;opacity:0.6000000000000001;isolation:isolate"></rect><path d="M172.39,110a2.22,2.22,0,1,1-2.22-2.22A2.21,2.21,0,0,1,172.39,110Z" style="fill:#fff;opacity:0.6000000000000001;isolation:isolate"></path><path d="M176.89,110a1.42,1.42,0,1,1-1.42-1.42A1.42,1.42,0,0,1,176.89,110Z" style="fill:#fff;opacity:0.6000000000000001;isolation:isolate"></path><rect x="99.54" y="142.96" width="125.13" height="15.38" rx="7.69" style="fill:#fff"></rect><path d="M214,153.75a3.86,3.86,0,1,1,2.74-6.59h0a3.86,3.86,0,0,1-2.74,6.59Zm0-6.72a2.87,2.87,0,0,0-2,4.89,2.86,2.86,0,1,0,2-4.89Z" style="fill:#407BFF"></path><path d="M218.86,155.26a.54.54,0,0,1-.36-.14l-2.49-2.5a.48.48,0,0,1,0-.7.5.5,0,0,1,.71,0l2.49,2.49a.5.5,0,0,1,0,.71A.54.54,0,0,1,218.86,155.26Z" style="fill:#407BFF"></path><rect x="229.42" y="142.96" width="15.38" height="15.38" rx="2.27" style="opacity:0.2;isolation:isolate"></rect><path d="M234.49,147a1,1,0,1,1-1-1A1,1,0,0,1,234.49,147Z" style="fill:#fff"></path><circle cx="241.09" cy="150.65" r="1.02" style="fill:#fff"></circle><circle cx="233.86" cy="154.76" r="1.02" style="fill:#fff"></circle><polygon points="233.98 154.98 233.73 154.55 240.55 150.66 233.36 147.17 233.58 146.72 241.62 150.63 233.98 154.98" style="fill:#fff"></polygon><rect x="91.48" y="171.93" width="161.89" height="220.28" style="fill:#fff;opacity:0.6000000000000001;isolation:isolate"></rect><rect x="163.76" y="202.96" width="16.09" height="16.09" transform="translate(442.5 238.72) rotate(135)" style="fill:#fff;opacity:0.2;isolation:isolate"></rect><rect x="105.32" y="192.8" width="36.4" height="36.4" rx="4.69" transform="translate(247.04 422.01) rotate(180)" style="opacity:0.2;isolation:isolate"></rect><path d="M107.28,239.9h32.48a2,2,0,0,0,2-2h0a2,2,0,0,0-2-2H107.28a2,2,0,0,0-2,2h0A2,2,0,0,0,107.28,239.9Z" style="opacity:0.2;isolation:isolate"></path><rect x="153.61" y="260.8" width="36.4" height="36.4" rx="4.69" transform="translate(343.62 558.01) rotate(180)" style="opacity:0.2;isolation:isolate"></rect><path d="M155.57,307.9H188a2,2,0,0,0,2-2h0a2,2,0,0,0-2-2H155.57a2,2,0,0,0-2,2h0A2,2,0,0,0,155.57,307.9Z" style="opacity:0.2;isolation:isolate"></path><rect x="105.32" y="260.8" width="36.4" height="36.4" rx="4.69" transform="translate(247.04 558.01) rotate(180)" style="opacity:0.2;isolation:isolate"></rect><path d="M107.28,307.9h32.48a2,2,0,0,0,2-2h0a2,2,0,0,0-2-2H107.28a2,2,0,0,0-2,2h0A2,2,0,0,0,107.28,307.9Z" style="opacity:0.2;isolation:isolate"></path><polygon points="117.59 268.74 129.45 268.74 135.37 279 129.45 289.27 117.59 289.27 111.67 279 117.59 268.74" style="fill:#fff;opacity:0.2;isolation:isolate"></polygon><polygon points="181.35 272.23 181.35 286.8 162.26 286.8 181.35 272.23" style="fill:#fff;opacity:0.2;isolation:isolate"></polygon><rect x="201.89" y="192.8" width="36.4" height="36.4" rx="4.69" transform="translate(440.19 422.01) rotate(180)" style="opacity:0.2;isolation:isolate"></rect><path d="M203.86,239.9h32.47a2,2,0,0,0,2-2h0a2,2,0,0,0-2-2H203.86a2,2,0,0,0-2,2h0A2,2,0,0,0,203.86,239.9Z" style="opacity:0.2;isolation:isolate"></path><circle cx="220.67" cy="210.53" r="10.21" transform="translate(-42.47 56.33) rotate(-13.28)" style="fill:#fff;opacity:0.2;isolation:isolate"></circle><path d="M119.11,200.32s14,15.82,13.56,15.82-18.31,3.7-18.31,3.7Z" style="fill:#fff;opacity:0.2;isolation:isolate"></path><rect x="153.61" y="192.8" width="36.4" height="36.4" rx="4.69" transform="translate(343.62 422.01) rotate(180)" style="opacity:0.2;isolation:isolate"></rect><path d="M155.57,239.9H188a2,2,0,0,0,2-2h0a2,2,0,0,0-2-2H155.57a2,2,0,0,0-2,2h0A2,2,0,0,0,155.57,239.9Z" style="opacity:0.2;isolation:isolate"></path><g style="opacity:0.2;isolation:isolate"><path d="M111.27,150.67v1.68h-.39v-1.64a.81.81,0,0,0-.87-.93,1,1,0,0,0-1,1.05v1.52h-.4v-4.09h.4V150a1.2,1.2,0,0,1,1.08-.53A1.11,1.11,0,0,1,111.27,150.67Z"></path><path d="M113.86,152.17a.9.9,0,0,1-.61.21.77.77,0,0,1-.85-.84v-1.76h-.51v-.33h.51v-.63h.39v.63h.89v.33h-.89v1.73a.47.47,0,0,0,.51.53.64.64,0,0,0,.43-.15Z"></path><path d="M116,152.17a1,1,0,0,1-.62.21.76.76,0,0,1-.84-.84v-1.76h-.52v-.33h.52v-.63H115v.63h.88v.33H115v1.73a.46.46,0,0,0,.5.53.64.64,0,0,0,.43-.15Z"></path><path d="M119.67,150.9a1.4,1.4,0,0,1-1.44,1.48,1.27,1.27,0,0,1-1.1-.57v1.61h-.39v-4h.37V150a1.26,1.26,0,0,1,1.12-.6A1.4,1.4,0,0,1,119.67,150.9Zm-.39,0A1.08,1.08,0,1,0,118.2,152,1.07,1.07,0,0,0,119.28,150.9Z"></path><path d="M120.07,152l.18-.31a1.75,1.75,0,0,0,1,.33c.55,0,.78-.19.78-.48,0-.75-1.88-.16-1.88-1.3,0-.48.41-.83,1.14-.83a2,2,0,0,1,1,.27l-.17.32a1.47,1.47,0,0,0-.86-.25c-.52,0-.75.2-.75.48,0,.78,1.88.19,1.88,1.3,0,.5-.44.83-1.2.83A2,2,0,0,1,120.07,152Z"></path><path d="M122.92,149.73a.29.29,0,0,1,.29-.3.3.3,0,0,1,0,.6A.29.29,0,0,1,122.92,149.73Zm0,2.35a.29.29,0,0,1,.29-.3.29.29,0,0,1,.3.3.3.3,0,0,1-.3.3A.29.29,0,0,1,122.92,152.08Z"></path><path d="M125.73,147.71h.35l-1.81,5.19h-.36Z"></path><path d="M127.21,147.71h.36l-1.82,5.19h-.35Z"></path><path d="M132.33,150.67v1.68h-.39v-1.64c0-.61-.31-.93-.83-.93a.93.93,0,0,0-1,1.05v1.52h-.39v-1.64c0-.61-.31-.93-.84-.93a.94.94,0,0,0-1,1.05v1.52h-.39v-2.9h.38V150a1.15,1.15,0,0,1,1.06-.55,1,1,0,0,1,1,.61,1.26,1.26,0,0,1,1.14-.61A1.09,1.09,0,0,1,132.33,150.67Z"></path><path d="M135.78,149.45l-1.45,3.25c-.24.57-.55.75-1,.75a1,1,0,0,1-.71-.27l.19-.29a.71.71,0,0,0,.52.22c.26,0,.44-.12.6-.48l.13-.28-1.29-2.9h.4l1.1,2.47,1.09-2.47Z"></path><path d="M136.34,148.26h.39v4.09h-.39Z"></path><path d="M137.73,148.54a.29.29,0,0,1,.29-.28.27.27,0,0,1,.28.27.28.28,0,0,1-.28.29A.29.29,0,0,1,137.73,148.54Zm.09.91h.39v2.9h-.39Z"></path><path d="M142,150.67v1.68h-.39v-1.64a.81.81,0,0,0-.87-.93,1,1,0,0,0-1,1.05v1.52h-.39v-2.9h.38V150a1.2,1.2,0,0,1,1.1-.56A1.11,1.11,0,0,1,142,150.67Z"></path><path d="M144.11,150.9l-.68.62v.83H143v-4.09h.4V151l1.73-1.58h.48l-1.24,1.19,1.36,1.71h-.48Z"></path><path d="M147.48,147.71h.36L146,152.9h-.35Z"></path></g></g><g id="freepik--Window--inject-159"><path d="M284.15,189.56v84a4.81,4.81,0,0,1-4.81,4.81h-158a4.81,4.81,0,0,1-4.81-4.81v-84a4.8,4.8,0,0,1,4.81-4.8h158A4.8,4.8,0,0,1,284.15,189.56Z" style="opacity:0.2;isolation:isolate"></path><path d="M291.15,181.56v84a4.81,4.81,0,0,1-4.81,4.81h-158a4.81,4.81,0,0,1-4.81-4.81v-84a4.8,4.8,0,0,1,4.81-4.8h158A4.8,4.8,0,0,1,291.15,181.56Z" style="fill:#407BFF"></path><path d="M291.15,193v72.62a4.81,4.81,0,0,1-4.81,4.81h-158a4.81,4.81,0,0,1-4.81-4.81V193Z" style="fill:#fff;opacity:0.5;isolation:isolate"></path><rect x="133.64" y="205.93" width="113.73" height="19.54" style="fill:#fff"></rect><path d="M145.44,215.45v2.79h-.88v-2.69c0-1-.47-1.42-1.3-1.42a1.44,1.44,0,0,0-1.54,1.61v2.5h-.88v-6.79h.88v2.63a2.1,2.1,0,0,1,1.71-.73A1.87,1.87,0,0,1,145.44,215.45Z" style="fill:#263238"></path><path d="M149.79,218a1.62,1.62,0,0,1-1.06.34,1.38,1.38,0,0,1-1.53-1.52v-2.66h-.83v-.72h.83v-1.06h.87v1.06h1.39v.72h-1.39v2.63a.71.71,0,0,0,.76.81,1.08,1.08,0,0,0,.69-.23Z" style="fill:#263238"></path><path d="M153.46,218a1.66,1.66,0,0,1-1.06.34,1.39,1.39,0,0,1-1.54-1.52v-2.66H150v-.72h.82v-1.06h.88v1.06h1.39v.72h-1.39v2.63a.71.71,0,0,0,.76.81,1.1,1.1,0,0,0,.69-.23Z" style="fill:#263238"></path><path d="M159.54,215.81a2.35,2.35,0,0,1-2.45,2.48,2,2,0,0,1-1.69-.79V220h-.88v-6.62h.84v.77a2.06,2.06,0,0,1,1.73-.81A2.34,2.34,0,0,1,159.54,215.81Zm-.89,0a1.63,1.63,0,1,0-1.63,1.71A1.6,1.6,0,0,0,158.65,215.81Z" style="fill:#263238"></path><path d="M160.14,217.72l.37-.69a3.13,3.13,0,0,0,1.7.5c.81,0,1.15-.24,1.15-.66,0-1.08-3.06-.14-3.06-2.07,0-.87.78-1.45,2-1.45a3.55,3.55,0,0,1,1.76.43l-.37.7a2.55,2.55,0,0,0-1.4-.38c-.77,0-1.14.28-1.14.66,0,1.15,3.07.21,3.07,2.1,0,.87-.81,1.43-2.09,1.43A3.53,3.53,0,0,1,160.14,217.72Z" style="fill:#263238"></path><path d="M164.93,214a.6.6,0,0,1,.62-.62.59.59,0,0,1,.6.62.61.61,0,0,1-.6.63A.62.62,0,0,1,164.93,214Zm0,3.69a.6.6,0,0,1,.62-.62.59.59,0,0,1,.6.62.6.6,0,0,1-.6.63A.61.61,0,0,1,164.93,217.66Z" style="fill:#263238"></path><path d="M169.78,210.54h.79l-3,8.61h-.8Z" style="fill:#263238"></path><path d="M172.38,210.54h.79l-3,8.61h-.79Z" style="fill:#263238"></path><path d="M179.73,218.24v-4.67l-2.32,3.89H177l-2.31-3.86v4.64h-.88v-6.4h.75l2.67,4.5,2.63-4.5h.75v6.4Z" style="fill:#263238"></path><path d="M185,216v2.22h-.91V216l-2.54-4.17h1l2,3.37,2.06-3.37h.91Z" style="fill:#263238"></path><path d="M188.33,211.84h.92v5.6h3.46v.8h-4.38Z" style="fill:#263238"></path><path d="M193.76,211.84h.92v6.4h-.92Z" style="fill:#263238"></path><path d="M202.1,211.84v6.4h-.75l-3.84-4.78v4.78h-.91v-6.4h.75l3.83,4.77v-4.77Z" style="fill:#263238"></path><path d="M206.1,215.39l-1.17,1.19v1.66H204v-6.4h.91v3.57l3.48-3.57h1l-2.73,2.88,2.9,3.52h-1.07Z" style="fill:#263238"></path><path d="M212.46,210.54h.79l-3,8.61h-.8Z" style="fill:#263238"></path><path d="M137.24,185.9h.54v2a2.9,2.9,0,0,1-1.94.67,2.68,2.68,0,1,1,0-5.35,2.58,2.58,0,0,1,2,.76l-.35.35a2.12,2.12,0,0,0-1.58-.62,2.19,2.19,0,1,0,0,4.37,2.28,2.28,0,0,0,1.37-.41Z" style="fill:#fff"></path><path d="M142.68,186.72h-3.31a1.47,1.47,0,0,0,1.56,1.38,1.55,1.55,0,0,0,1.21-.52l.3.35a2.1,2.1,0,0,1-3.61-1.37,1.93,1.93,0,1,1,3.86,0S142.68,186.66,142.68,186.72Zm-3.31-.39h2.8a1.4,1.4,0,0,0-2.8,0Z" style="fill:#fff"></path><path d="M145.86,188.3a1.32,1.32,0,0,1-.84.27,1.05,1.05,0,0,1-1.16-1.15V185h-.7v-.45h.7v-.87h.54v.87h1.2V185h-1.2v2.36a.64.64,0,0,0,.68.73.87.87,0,0,0,.59-.21Z" style="fill:#fff"></path><path d="M148.91,183.27h.55v4.79h2.95v.48h-3.5Z" style="fill:#fff"></path><path d="M153.1,183.33a.38.38,0,0,1,.39-.37.37.37,0,0,1,.39.36.39.39,0,0,1-.78,0Zm.12,1.25h.53v4h-.53Z" style="fill:#fff"></path><path d="M158.88,186.24v2.3h-.53v-2.25a1.11,1.11,0,0,0-1.19-1.26,1.3,1.3,0,0,0-1.38,1.43v2.08h-.54v-4h.51v.73a1.67,1.67,0,0,1,1.51-.76A1.51,1.51,0,0,1,158.88,186.24Z" style="fill:#fff"></path><path d="M161.8,186.55l-.94.86v1.13h-.53V183h.53v3.78l2.37-2.16h.66l-1.69,1.62,1.85,2.34h-.66Z" style="fill:#fff"></path><path d="M254.09,215.6a2.65,2.65,0,0,1,2.77-2.68,2.56,2.56,0,0,1,1.92.77l-.35.36a2.09,2.09,0,0,0-1.56-.63,2.18,2.18,0,1,0,0,4.36,2.05,2.05,0,0,0,1.56-.63l.35.36a2.57,2.57,0,0,1-1.93.77A2.64,2.64,0,0,1,254.09,215.6Z" style="fill:#fff"></path><path d="M259.39,215.6a2.77,2.77,0,1,1,2.76,2.68A2.65,2.65,0,0,1,259.39,215.6Zm5,0a2.21,2.21,0,1,0-2.21,2.18A2.14,2.14,0,0,0,264.36,215.6Z" style="fill:#fff"></path><path d="M270.28,214.78c0,1.12-.81,1.79-2.15,1.79h-1.42v1.67h-.55V213h2C269.47,213,270.28,213.65,270.28,214.78Zm-.56,0c0-.85-.55-1.33-1.61-1.33h-1.4v2.63h1.4C269.17,216.08,269.72,215.6,269.72,214.78Z" style="fill:#fff"></path><path d="M273.29,216.42v1.82h-.55v-1.82L270.63,213h.59l1.81,3,1.81-3h.55Z" style="fill:#fff"></path><path d="M280.07,206.93v17.54H248.36V206.93h31.71m1-1H247.36v19.54h33.71V205.93Z" style="fill:#fff"></path><rect x="218.86" y="240.25" width="62.21" height="19.79" rx="4.31" style="fill:#407BFF"></rect><path d="M233.85,252.15l.35-.73a3.32,3.32,0,0,0,2.15.75c1.13,0,1.61-.43,1.61-1,0-1.6-4-.59-4-3,0-1,.78-1.87,2.5-1.87a3.91,3.91,0,0,1,2.1.58l-.31.74a3.4,3.4,0,0,0-1.79-.53c-1.11,0-1.59.47-1.59,1,0,1.59,4,.59,4,3,0,1-.81,1.86-2.53,1.86A3.9,3.9,0,0,1,233.85,252.15Z" style="fill:#fff"></path><path d="M245.85,246.37v6.52h-.93V250h-3.75v2.91h-.93v-6.52h.93v2.8h3.75v-2.8Z" style="fill:#fff"></path><path d="M252,251.26H248.5l-.72,1.63h-1l3-6.52h.92l3,6.52h-1Zm-.33-.75-1.4-3.19-1.41,3.19Z" style="fill:#fff"></path><path d="M259,252.89l-1.41-2-.41,0h-1.61v2h-.93v-6.52h2.54c1.7,0,2.73.85,2.73,2.27a2.07,2.07,0,0,1-1.44,2.06l1.55,2.19Zm0-4.25c0-.93-.62-1.46-1.81-1.46h-1.59v2.93h1.59C258.35,250.11,259,249.57,259,248.64Z" style="fill:#fff"></path><path d="M266.15,252.08v.81h-4.73v-6.52H266v.81h-3.67v2h3.27V250h-3.27v2.11Z" style="fill:#fff"></path></g><g id="freepik--speech-bubble--inject-159"><rect x="328.72" y="175.14" width="22.59" height="22.59" rx="3.05" style="fill:#407BFF"></rect><circle cx="334.81" cy="181.09" r="1.4" style="fill:#fff"></circle><circle cx="345.23" cy="186.15" r="1.4" style="fill:#fff"></circle><path d="M336.74,191.78a1.4,1.4,0,1,1-1.4-1.4A1.4,1.4,0,0,1,336.74,191.78Z" style="fill:#fff"></path><polygon points="335.46 192 335.21 191.57 344.69 186.17 334.7 181.31 334.92 180.86 345.76 186.13 335.46 192" style="fill:#fff"></polygon><path d="M340.59,195s0,4.7,2.68,6.9c0,0-3.72-.64-5.43-6.1Z" style="fill:#407BFF"></path></g></svg>